<mxfile host="app.diagrams.net" modified="2023-12-31T05:31:48.552Z" agent="Mozilla/5.0 (X11; Linux x86_64) AppleWebKit/537.36 (KHTML, like Gecko) Chrome/120.0.0.0 Safari/537.36" version="22.1.16" etag="H-_AVyqG3NSide22kCQT" type="github">
  <diagram name="Page-1" id="Teg0KDicRowCUy8mHsM8">
    <mxGraphModel>
      <root>
        <mxCell id="0" />
        <mxCell id="1" parent="0" />
      </root>
    </mxGraphModel>
  </diagram>
</mxfile>
